<?xml version="1.0" encoding="utf-8"?>
<svg xmlns="http://www.w3.org/2000/svg" height="320" shape-rendering="crispEdges" viewBox="0 0 320 320" width="320">
  <rect fill="none" height="100%" width="100%"/>
  <rect fill="#6f597a" height="10" shape-rendering="crispEdges" width="100" x="60" y="90"/>
  <rect fill="#6f597a" height="10" shape-rendering="crispEdges" width="100" x="180" y="90"/>
  <rect fill="#6f597a" height="10" shape-rendering="crispEdges" width="10" x="60" y="100"/>
  <rect fill="#ffffff" height="10" shape-rendering="crispEdges" width="50" x="70" y="100"/>
  <rect fill="#6f597a" height="10" shape-rendering="crispEdges" width="40" x="120" y="100"/>
  <rect fill="#6f597a" height="10" shape-rendering="crispEdges" width="10" x="180" y="100"/>
  <rect fill="#ffffff" height="10" shape-rendering="crispEdges" width="50" x="190" y="100"/>
  <rect fill="#6f597a" height="10" shape-rendering="crispEdges" width="40" x="240" y="100"/>
  <rect fill="#6f597a" height="10" shape-rendering="crispEdges" width="10" x="60" y="110"/>
  <rect fill="#ffffff" height="10" shape-rendering="crispEdges" width="50" x="70" y="110"/>
  <rect fill="#6f597a" height="10" shape-rendering="crispEdges" width="40" x="120" y="110"/>
  <rect fill="#6f597a" height="10" shape-rendering="crispEdges" width="10" x="180" y="110"/>
  <rect fill="#ffffff" height="10" shape-rendering="crispEdges" width="50" x="190" y="110"/>
  <rect fill="#6f597a" height="10" shape-rendering="crispEdges" width="40" x="240" y="110"/>
  <rect fill="#6f597a" height="10" shape-rendering="crispEdges" width="50" x="20" y="120"/>
  <rect fill="#ffffff" height="10" shape-rendering="crispEdges" width="50" x="70" y="120"/>
  <rect fill="#6f597a" height="10" shape-rendering="crispEdges" width="70" x="120" y="120"/>
  <rect fill="#ffffff" height="10" shape-rendering="crispEdges" width="50" x="190" y="120"/>
  <rect fill="#6f597a" height="10" shape-rendering="crispEdges" width="40" x="240" y="120"/>
  <rect fill="#6f597a" height="10" shape-rendering="crispEdges" width="50" x="20" y="130"/>
  <rect fill="#ffffff" height="10" shape-rendering="crispEdges" width="50" x="70" y="130"/>
  <rect fill="#6f597a" height="10" shape-rendering="crispEdges" width="70" x="120" y="130"/>
  <rect fill="#ffffff" height="10" shape-rendering="crispEdges" width="50" x="190" y="130"/>
  <rect fill="#6f597a" height="10" shape-rendering="crispEdges" width="40" x="240" y="130"/>
  <rect fill="#6f597a" height="10" shape-rendering="crispEdges" width="10" x="20" y="140"/>
  <rect fill="#6f597a" height="10" shape-rendering="crispEdges" width="10" x="60" y="140"/>
  <rect fill="#ffffff" height="10" shape-rendering="crispEdges" width="50" x="70" y="140"/>
  <rect fill="#6f597a" height="10" shape-rendering="crispEdges" width="40" x="120" y="140"/>
  <rect fill="#6f597a" height="10" shape-rendering="crispEdges" width="10" x="180" y="140"/>
  <rect fill="#ffffff" height="10" shape-rendering="crispEdges" width="50" x="190" y="140"/>
  <rect fill="#6f597a" height="10" shape-rendering="crispEdges" width="40" x="240" y="140"/>
  <rect fill="#6f597a" height="10" shape-rendering="crispEdges" width="10" x="20" y="150"/>
  <rect fill="#6f597a" height="10" shape-rendering="crispEdges" width="10" x="60" y="150"/>
  <rect fill="#ffffff" height="10" shape-rendering="crispEdges" width="50" x="70" y="150"/>
  <rect fill="#6f597a" height="10" shape-rendering="crispEdges" width="40" x="120" y="150"/>
  <rect fill="#6f597a" height="10" shape-rendering="crispEdges" width="10" x="180" y="150"/>
  <rect fill="#ffffff" height="10" shape-rendering="crispEdges" width="50" x="190" y="150"/>
  <rect fill="#6f597a" height="10" shape-rendering="crispEdges" width="40" x="240" y="150"/>
  <rect fill="#6f597a" height="10" shape-rendering="crispEdges" width="10" x="20" y="160"/>
  <rect fill="#6f597a" height="10" shape-rendering="crispEdges" width="10" x="60" y="160"/>
  <rect fill="#ffffff" height="10" shape-rendering="crispEdges" width="50" x="70" y="160"/>
  <rect fill="#6f597a" height="10" shape-rendering="crispEdges" width="40" x="120" y="160"/>
  <rect fill="#6f597a" height="10" shape-rendering="crispEdges" width="10" x="180" y="160"/>
  <rect fill="#ffffff" height="10" shape-rendering="crispEdges" width="50" x="190" y="160"/>
  <rect fill="#6f597a" height="10" shape-rendering="crispEdges" width="40" x="240" y="160"/>
  <rect fill="#6f597a" height="10" shape-rendering="crispEdges" width="10" x="60" y="170"/>
  <rect fill="#ffffff" height="10" shape-rendering="crispEdges" width="50" x="70" y="170"/>
  <rect fill="#6f597a" height="10" shape-rendering="crispEdges" width="40" x="120" y="170"/>
  <rect fill="#6f597a" height="10" shape-rendering="crispEdges" width="10" x="180" y="170"/>
  <rect fill="#ffffff" height="10" shape-rendering="crispEdges" width="50" x="190" y="170"/>
  <rect fill="#6f597a" height="10" shape-rendering="crispEdges" width="40" x="240" y="170"/>
  <rect fill="#6f597a" height="10" shape-rendering="crispEdges" width="100" x="60" y="180"/>
  <rect fill="#6f597a" height="10" shape-rendering="crispEdges" width="100" x="180" y="180"/>
</svg>