<?xml version="1.0" encoding="utf-8"?>
<svg xmlns="http://www.w3.org/2000/svg" height="320" shape-rendering="crispEdges" viewBox="0 0 320 320" width="320">
  <rect fill="none" height="100%" width="100%"/>
  <rect fill="#eff2fa" height="10" shape-rendering="crispEdges" width="60" x="110" y="30"/>
  <rect fill="#eff2fa" height="10" shape-rendering="crispEdges" width="10" x="190" y="30"/>
  <rect fill="#eff2fa" height="10" shape-rendering="crispEdges" width="30" x="90" y="40"/>
  <rect fill="#eff2fa" height="10" shape-rendering="crispEdges" width="10" x="160" y="40"/>
  <rect fill="#eff2fa" height="10" shape-rendering="crispEdges" width="20" x="200" y="40"/>
  <rect fill="#eff2fa" height="10" shape-rendering="crispEdges" width="10" x="230" y="40"/>
  <rect fill="#eff2fa" height="10" shape-rendering="crispEdges" width="10" x="80" y="50"/>
  <rect fill="#eff2fa" height="10" shape-rendering="crispEdges" width="30" x="110" y="50"/>
  <rect fill="#eff2fa" height="10" shape-rendering="crispEdges" width="30" x="170" y="50"/>
  <rect fill="#eff2fa" height="10" shape-rendering="crispEdges" width="20" x="90" y="60"/>
  <rect fill="#eff2fa" height="10" shape-rendering="crispEdges" width="10" x="120" y="60"/>
  <rect fill="#ffffff" height="10" shape-rendering="crispEdges" width="220" x="50" y="80"/>
  <rect fill="#ffffff" height="10" shape-rendering="crispEdges" width="10" x="50" y="90"/>
  <rect fill="#adc8cc" height="10" shape-rendering="crispEdges" width="10" x="60" y="90"/>
  <rect fill="#e5e5de" height="10" shape-rendering="crispEdges" width="10" x="70" y="90"/>
  <rect fill="#ffffff" height="10" shape-rendering="crispEdges" width="170" x="80" y="90"/>
  <rect fill="#e5e5de" height="10" shape-rendering="crispEdges" width="10" x="250" y="90"/>
  <rect fill="#ffffff" height="10" shape-rendering="crispEdges" width="10" x="260" y="90"/>
  <rect fill="#ffffff" height="10" shape-rendering="crispEdges" width="10" x="30" y="100"/>
  <rect fill="#e5e5de" height="10" shape-rendering="crispEdges" width="10" x="40" y="100"/>
  <rect fill="#ffffff" height="10" shape-rendering="crispEdges" width="10" x="50" y="100"/>
  <rect fill="#adc8cc" height="10" shape-rendering="crispEdges" width="10" x="60" y="100"/>
  <rect fill="#e5e5de" height="10" shape-rendering="crispEdges" width="10" x="70" y="100"/>
  <rect fill="#ffffff" height="10" shape-rendering="crispEdges" width="170" x="80" y="100"/>
  <rect fill="#e5e5de" height="10" shape-rendering="crispEdges" width="10" x="250" y="100"/>
  <rect fill="#ffffff" height="10" shape-rendering="crispEdges" width="10" x="260" y="100"/>
  <rect fill="#ffffff" height="10" shape-rendering="crispEdges" width="20" x="20" y="110"/>
  <rect fill="#ffffff" height="10" shape-rendering="crispEdges" width="10" x="50" y="110"/>
  <rect fill="#adc8cc" height="10" shape-rendering="crispEdges" width="10" x="60" y="110"/>
  <rect fill="#e5e5de" height="10" shape-rendering="crispEdges" width="20" x="70" y="110"/>
  <rect fill="#ffffff" height="10" shape-rendering="crispEdges" width="160" x="90" y="110"/>
  <rect fill="#e5e5de" height="10" shape-rendering="crispEdges" width="10" x="250" y="110"/>
  <rect fill="#ffffff" height="10" shape-rendering="crispEdges" width="10" x="260" y="110"/>
  <rect fill="#ffffff" height="10" shape-rendering="crispEdges" width="10" x="20" y="120"/>
  <rect fill="#ffffff" height="10" shape-rendering="crispEdges" width="10" x="50" y="120"/>
  <rect fill="#adc8cc" height="10" shape-rendering="crispEdges" width="10" x="60" y="120"/>
  <rect fill="#e5e5de" height="10" shape-rendering="crispEdges" width="20" x="70" y="120"/>
  <rect fill="#ffffff" height="10" shape-rendering="crispEdges" width="160" x="90" y="120"/>
  <rect fill="#e5e5de" height="10" shape-rendering="crispEdges" width="10" x="250" y="120"/>
  <rect fill="#ffffff" height="10" shape-rendering="crispEdges" width="10" x="260" y="120"/>
  <rect fill="#ffffff" height="10" shape-rendering="crispEdges" width="10" x="20" y="130"/>
  <rect fill="#ffffff" height="10" shape-rendering="crispEdges" width="10" x="50" y="130"/>
  <rect fill="#adc8cc" height="10" shape-rendering="crispEdges" width="10" x="60" y="130"/>
  <rect fill="#e5e5de" height="10" shape-rendering="crispEdges" width="20" x="70" y="130"/>
  <rect fill="#ffffff" height="10" shape-rendering="crispEdges" width="160" x="90" y="130"/>
  <rect fill="#e5e5de" height="10" shape-rendering="crispEdges" width="10" x="250" y="130"/>
  <rect fill="#ffffff" height="10" shape-rendering="crispEdges" width="10" x="260" y="130"/>
  <rect fill="#ffffff" height="10" shape-rendering="crispEdges" width="20" x="20" y="140"/>
  <rect fill="#ffffff" height="10" shape-rendering="crispEdges" width="10" x="50" y="140"/>
  <rect fill="#adc8cc" height="10" shape-rendering="crispEdges" width="10" x="60" y="140"/>
  <rect fill="#e5e5de" height="10" shape-rendering="crispEdges" width="20" x="70" y="140"/>
  <rect fill="#ffffff" height="10" shape-rendering="crispEdges" width="160" x="90" y="140"/>
  <rect fill="#e5e5de" height="10" shape-rendering="crispEdges" width="10" x="250" y="140"/>
  <rect fill="#ffffff" height="10" shape-rendering="crispEdges" width="10" x="260" y="140"/>
  <rect fill="#ffffff" height="10" shape-rendering="crispEdges" width="10" x="30" y="150"/>
  <rect fill="#e5e5de" height="10" shape-rendering="crispEdges" width="10" x="40" y="150"/>
  <rect fill="#ffffff" height="10" shape-rendering="crispEdges" width="10" x="50" y="150"/>
  <rect fill="#adc8cc" height="10" shape-rendering="crispEdges" width="10" x="60" y="150"/>
  <rect fill="#e5e5de" height="10" shape-rendering="crispEdges" width="20" x="70" y="150"/>
  <rect fill="#ffffff" height="10" shape-rendering="crispEdges" width="180" x="90" y="150"/>
  <rect fill="#ffffff" height="10" shape-rendering="crispEdges" width="10" x="40" y="160"/>
  <rect fill="#e5e5de" height="10" shape-rendering="crispEdges" width="10" x="50" y="160"/>
  <rect fill="#ffffff" height="10" shape-rendering="crispEdges" width="10" x="60" y="160"/>
  <rect fill="#adc8cc" height="10" shape-rendering="crispEdges" width="10" x="70" y="160"/>
  <rect fill="#e5e5de" height="10" shape-rendering="crispEdges" width="10" x="80" y="160"/>
  <rect fill="#ffffff" height="10" shape-rendering="crispEdges" width="170" x="90" y="160"/>
  <rect fill="#ffffff" height="10" shape-rendering="crispEdges" width="10" x="60" y="170"/>
  <rect fill="#adc8cc" height="10" shape-rendering="crispEdges" width="10" x="70" y="170"/>
  <rect fill="#e5e5de" height="10" shape-rendering="crispEdges" width="10" x="80" y="170"/>
  <rect fill="#ffffff" height="10" shape-rendering="crispEdges" width="170" x="90" y="170"/>
  <rect fill="#ffffff" height="10" shape-rendering="crispEdges" width="10" x="70" y="180"/>
  <rect fill="#adc8cc" height="10" shape-rendering="crispEdges" width="10" x="80" y="180"/>
  <rect fill="#e5e5de" height="10" shape-rendering="crispEdges" width="10" x="90" y="180"/>
  <rect fill="#ffffff" height="10" shape-rendering="crispEdges" width="40" x="100" y="180"/>
  <rect fill="#e8705b" height="10" shape-rendering="crispEdges" width="40" x="140" y="180"/>
  <rect fill="#ffffff" height="10" shape-rendering="crispEdges" width="40" x="180" y="180"/>
  <rect fill="#e5e5de" height="10" shape-rendering="crispEdges" width="10" x="220" y="180"/>
  <rect fill="#ffffff" height="10" shape-rendering="crispEdges" width="20" x="230" y="180"/>
  <rect fill="#ffffff" height="10" shape-rendering="crispEdges" width="10" x="80" y="190"/>
  <rect fill="#adc8cc" height="10" shape-rendering="crispEdges" width="10" x="90" y="190"/>
  <rect fill="#e5e5de" height="10" shape-rendering="crispEdges" width="10" x="100" y="190"/>
  <rect fill="#ffffff" height="10" shape-rendering="crispEdges" width="40" x="110" y="190"/>
  <rect fill="#e8705b" height="10" shape-rendering="crispEdges" width="20" x="150" y="190"/>
  <rect fill="#ffffff" height="10" shape-rendering="crispEdges" width="40" x="170" y="190"/>
  <rect fill="#e5e5de" height="10" shape-rendering="crispEdges" width="10" x="210" y="190"/>
  <rect fill="#ffffff" height="10" shape-rendering="crispEdges" width="20" x="220" y="190"/>
  <rect fill="#ffffff" height="10" shape-rendering="crispEdges" width="10" x="90" y="200"/>
  <rect fill="#adc8cc" height="10" shape-rendering="crispEdges" width="10" x="100" y="200"/>
  <rect fill="#e5e5de" height="10" shape-rendering="crispEdges" width="20" x="110" y="200"/>
  <rect fill="#ffffff" height="10" shape-rendering="crispEdges" width="60" x="130" y="200"/>
  <rect fill="#e5e5de" height="10" shape-rendering="crispEdges" width="20" x="190" y="200"/>
  <rect fill="#ffffff" height="10" shape-rendering="crispEdges" width="20" x="210" y="200"/>
</svg>