<?xml version="1.0" encoding="utf-8"?>
<svg xmlns="http://www.w3.org/2000/svg" height="320" shape-rendering="crispEdges" viewBox="0 0 320 320" width="320">
  <rect fill="none" height="100%" width="100%"/>
  <rect fill="#f39d44" height="10" shape-rendering="crispEdges" width="100" x="120" y="20"/>
  <rect fill="#f39d44" height="10" shape-rendering="crispEdges" width="10" x="110" y="30"/>
  <rect fill="#eeb78c" height="10" shape-rendering="crispEdges" width="100" x="120" y="30"/>
  <rect fill="#f39d44" height="10" shape-rendering="crispEdges" width="10" x="220" y="30"/>
  <rect fill="#f39d44" height="10" shape-rendering="crispEdges" width="10" x="100" y="40"/>
  <rect fill="#eeb78c" height="10" shape-rendering="crispEdges" width="10" x="110" y="40"/>
  <rect fill="#f9f5e9" height="10" shape-rendering="crispEdges" width="40" x="120" y="40"/>
  <rect fill="#eeb78c" height="10" shape-rendering="crispEdges" width="20" x="160" y="40"/>
  <rect fill="#f9f5e9" height="10" shape-rendering="crispEdges" width="40" x="180" y="40"/>
  <rect fill="#eeb78c" height="10" shape-rendering="crispEdges" width="10" x="220" y="40"/>
  <rect fill="#f39d44" height="10" shape-rendering="crispEdges" width="10" x="230" y="40"/>
  <rect fill="#f39d44" height="10" shape-rendering="crispEdges" width="10" x="100" y="50"/>
  <rect fill="#eeb78c" height="10" shape-rendering="crispEdges" width="10" x="110" y="50"/>
  <rect fill="#f9f5e9" height="10" shape-rendering="crispEdges" width="100" x="120" y="50"/>
  <rect fill="#eeb78c" height="10" shape-rendering="crispEdges" width="10" x="220" y="50"/>
  <rect fill="#f39d44" height="10" shape-rendering="crispEdges" width="10" x="230" y="50"/>
  <rect fill="#f39d44" height="10" shape-rendering="crispEdges" width="10" x="100" y="60"/>
  <rect fill="#eeb78c" height="10" shape-rendering="crispEdges" width="10" x="110" y="60"/>
  <rect fill="#f9f5e9" height="10" shape-rendering="crispEdges" width="10" x="120" y="60"/>
  <rect fill="#5d3500" height="10" shape-rendering="crispEdges" width="20" x="130" y="60"/>
  <rect fill="#eeb78c" height="10" shape-rendering="crispEdges" width="10" x="150" y="60"/>
  <rect fill="#f9f5e9" height="10" shape-rendering="crispEdges" width="20" x="160" y="60"/>
  <rect fill="#eeb78c" height="10" shape-rendering="crispEdges" width="10" x="180" y="60"/>
  <rect fill="#5d3500" height="10" shape-rendering="crispEdges" width="20" x="190" y="60"/>
  <rect fill="#f9f5e9" height="10" shape-rendering="crispEdges" width="10" x="210" y="60"/>
  <rect fill="#eeb78c" height="10" shape-rendering="crispEdges" width="10" x="220" y="60"/>
  <rect fill="#f39d44" height="10" shape-rendering="crispEdges" width="10" x="230" y="60"/>
  <rect fill="#f39d44" height="10" shape-rendering="crispEdges" width="10" x="100" y="70"/>
  <rect fill="#eeb78c" height="10" shape-rendering="crispEdges" width="10" x="110" y="70"/>
  <rect fill="#f9f5e9" height="10" shape-rendering="crispEdges" width="30" x="120" y="70"/>
  <rect fill="#eeb78c" height="10" shape-rendering="crispEdges" width="10" x="150" y="70"/>
  <rect fill="#f9f5e9" height="10" shape-rendering="crispEdges" width="20" x="160" y="70"/>
  <rect fill="#eeb78c" height="10" shape-rendering="crispEdges" width="10" x="180" y="70"/>
  <rect fill="#f9f5e9" height="10" shape-rendering="crispEdges" width="30" x="190" y="70"/>
  <rect fill="#eeb78c" height="10" shape-rendering="crispEdges" width="10" x="220" y="70"/>
  <rect fill="#f39d44" height="10" shape-rendering="crispEdges" width="10" x="230" y="70"/>
  <rect fill="#f39d44" height="10" shape-rendering="crispEdges" width="10" x="100" y="80"/>
  <rect fill="#eeb78c" height="10" shape-rendering="crispEdges" width="10" x="110" y="80"/>
  <rect fill="#f9f5e9" height="10" shape-rendering="crispEdges" width="40" x="120" y="80"/>
  <rect fill="#eeb78c" height="10" shape-rendering="crispEdges" width="20" x="160" y="80"/>
  <rect fill="#f9f5e9" height="10" shape-rendering="crispEdges" width="40" x="180" y="80"/>
  <rect fill="#eeb78c" height="10" shape-rendering="crispEdges" width="10" x="220" y="80"/>
  <rect fill="#f39d44" height="10" shape-rendering="crispEdges" width="10" x="230" y="80"/>
  <rect fill="#f39d44" height="10" shape-rendering="crispEdges" width="20" x="100" y="90"/>
  <rect fill="#eeb78c" height="10" shape-rendering="crispEdges" width="10" x="120" y="90"/>
  <rect fill="#f9f5e9" height="10" shape-rendering="crispEdges" width="80" x="130" y="90"/>
  <rect fill="#eeb78c" height="10" shape-rendering="crispEdges" width="20" x="210" y="90"/>
  <rect fill="#f39d44" height="10" shape-rendering="crispEdges" width="10" x="230" y="90"/>
  <rect fill="#db8323" height="10" shape-rendering="crispEdges" width="40" x="90" y="100"/>
  <rect fill="#eeb78c" height="10" shape-rendering="crispEdges" width="10" x="130" y="100"/>
  <rect fill="#f9f5e9" height="10" shape-rendering="crispEdges" width="80" x="140" y="100"/>
  <rect fill="#eeb78c" height="10" shape-rendering="crispEdges" width="10" x="220" y="100"/>
  <rect fill="#f39d44" height="10" shape-rendering="crispEdges" width="10" x="230" y="100"/>
  <rect fill="#db8323" height="10" shape-rendering="crispEdges" width="60" x="80" y="110"/>
  <rect fill="#f9f5e9" height="10" shape-rendering="crispEdges" width="80" x="140" y="110"/>
  <rect fill="#eeb78c" height="10" shape-rendering="crispEdges" width="10" x="220" y="110"/>
  <rect fill="#f39d44" height="10" shape-rendering="crispEdges" width="10" x="230" y="110"/>
  <rect fill="#db8323" height="10" shape-rendering="crispEdges" width="60" x="80" y="120"/>
  <rect fill="#f39d44" height="10" shape-rendering="crispEdges" width="10" x="140" y="120"/>
  <rect fill="#f9f5e9" height="10" shape-rendering="crispEdges" width="70" x="150" y="120"/>
  <rect fill="#eeb78c" height="10" shape-rendering="crispEdges" width="10" x="220" y="120"/>
  <rect fill="#f39d44" height="10" shape-rendering="crispEdges" width="10" x="230" y="120"/>
  <rect fill="#db8323" height="10" shape-rendering="crispEdges" width="70" x="70" y="130"/>
  <rect fill="#f39d44" height="10" shape-rendering="crispEdges" width="10" x="140" y="130"/>
  <rect fill="#f9f5e9" height="10" shape-rendering="crispEdges" width="70" x="150" y="130"/>
  <rect fill="#eeb78c" height="10" shape-rendering="crispEdges" width="10" x="220" y="130"/>
  <rect fill="#f39d44" height="10" shape-rendering="crispEdges" width="10" x="230" y="130"/>
  <rect fill="#db8323" height="10" shape-rendering="crispEdges" width="70" x="70" y="140"/>
  <rect fill="#f39d44" height="10" shape-rendering="crispEdges" width="10" x="140" y="140"/>
  <rect fill="#f9f5e9" height="10" shape-rendering="crispEdges" width="70" x="150" y="140"/>
  <rect fill="#eeb78c" height="10" shape-rendering="crispEdges" width="10" x="220" y="140"/>
  <rect fill="#f39d44" height="10" shape-rendering="crispEdges" width="10" x="230" y="140"/>
  <rect fill="#db8323" height="10" shape-rendering="crispEdges" width="70" x="70" y="150"/>
  <rect fill="#f39d44" height="10" shape-rendering="crispEdges" width="10" x="140" y="150"/>
  <rect fill="#f9f5e9" height="10" shape-rendering="crispEdges" width="70" x="150" y="150"/>
  <rect fill="#eeb78c" height="10" shape-rendering="crispEdges" width="10" x="220" y="150"/>
  <rect fill="#f39d44" height="10" shape-rendering="crispEdges" width="10" x="230" y="150"/>
  <rect fill="#db8323" height="10" shape-rendering="crispEdges" width="60" x="70" y="160"/>
  <rect fill="#f39d44" height="10" shape-rendering="crispEdges" width="20" x="130" y="160"/>
  <rect fill="#f9f5e9" height="10" shape-rendering="crispEdges" width="70" x="150" y="160"/>
  <rect fill="#f39d44" height="10" shape-rendering="crispEdges" width="10" x="220" y="160"/>
  <rect fill="#db8323" height="10" shape-rendering="crispEdges" width="50" x="70" y="170"/>
  <rect fill="#f39d44" height="10" shape-rendering="crispEdges" width="30" x="120" y="170"/>
  <rect fill="#f9f5e9" height="10" shape-rendering="crispEdges" width="60" x="150" y="170"/>
  <rect fill="#f39d44" height="10" shape-rendering="crispEdges" width="10" x="210" y="170"/>
  <rect fill="#db8323" height="10" shape-rendering="crispEdges" width="30" x="70" y="180"/>
  <rect fill="#f39d44" height="10" shape-rendering="crispEdges" width="40" x="100" y="180"/>
  <rect fill="#f9f5e9" height="10" shape-rendering="crispEdges" width="60" x="140" y="180"/>
  <rect fill="#f39d44" height="10" shape-rendering="crispEdges" width="10" x="200" y="180"/>
  <rect fill="#f39d44" height="10" shape-rendering="crispEdges" width="10" x="60" y="190"/>
  <rect fill="#db8323" height="10" shape-rendering="crispEdges" width="10" x="70" y="190"/>
  <rect fill="#f39d44" height="10" shape-rendering="crispEdges" width="70" x="80" y="190"/>
  <rect fill="#f9f5e9" height="10" shape-rendering="crispEdges" width="60" x="150" y="190"/>
  <rect fill="#f39d44" height="10" shape-rendering="crispEdges" width="110" x="50" y="200"/>
  <rect fill="#f9f5e9" height="10" shape-rendering="crispEdges" width="70" x="160" y="200"/>
</svg>