<?xml version="1.0" encoding="utf-8"?>
<svg xmlns="http://www.w3.org/2000/svg" height="320" shape-rendering="crispEdges" viewBox="0 0 320 320" width="320">
  <rect fill="none" height="100%" width="100%"/>
  <rect fill="#068940" height="10" shape-rendering="crispEdges" width="10" x="130" y="30"/>
  <rect fill="#3f9323" height="10" shape-rendering="crispEdges" width="20" x="150" y="30"/>
  <rect fill="#068940" height="10" shape-rendering="crispEdges" width="10" x="180" y="30"/>
  <rect fill="#3f9323" height="10" shape-rendering="crispEdges" width="10" x="110" y="40"/>
  <rect fill="#068940" height="10" shape-rendering="crispEdges" width="20" x="130" y="40"/>
  <rect fill="#3f9323" height="10" shape-rendering="crispEdges" width="20" x="150" y="40"/>
  <rect fill="#068940" height="10" shape-rendering="crispEdges" width="20" x="170" y="40"/>
  <rect fill="#3f9323" height="10" shape-rendering="crispEdges" width="10" x="200" y="40"/>
  <rect fill="#3f9323" height="10" shape-rendering="crispEdges" width="30" x="110" y="50"/>
  <rect fill="#068940" height="10" shape-rendering="crispEdges" width="10" x="140" y="50"/>
  <rect fill="#3f9323" height="10" shape-rendering="crispEdges" width="20" x="150" y="50"/>
  <rect fill="#068940" height="10" shape-rendering="crispEdges" width="10" x="170" y="50"/>
  <rect fill="#3f9323" height="10" shape-rendering="crispEdges" width="30" x="180" y="50"/>
  <rect fill="#3f9323" height="10" shape-rendering="crispEdges" width="60" x="130" y="60"/>
  <rect fill="#ffef16" height="10" shape-rendering="crispEdges" width="20" x="110" y="70"/>
  <rect fill="#ffc110" height="10" shape-rendering="crispEdges" width="20" x="130" y="70"/>
  <rect fill="#ffef16" height="10" shape-rendering="crispEdges" width="20" x="150" y="70"/>
  <rect fill="#ffc110" height="10" shape-rendering="crispEdges" width="20" x="170" y="70"/>
  <rect fill="#ffef16" height="10" shape-rendering="crispEdges" width="20" x="190" y="70"/>
  <rect fill="#ffef16" height="10" shape-rendering="crispEdges" width="20" x="90" y="80"/>
  <rect fill="#ffc110" height="10" shape-rendering="crispEdges" width="20" x="110" y="80"/>
  <rect fill="#ffef16" height="10" shape-rendering="crispEdges" width="20" x="130" y="80"/>
  <rect fill="#ffc110" height="10" shape-rendering="crispEdges" width="20" x="150" y="80"/>
  <rect fill="#ffef16" height="10" shape-rendering="crispEdges" width="20" x="170" y="80"/>
  <rect fill="#ffc110" height="10" shape-rendering="crispEdges" width="20" x="190" y="80"/>
  <rect fill="#ffef16" height="10" shape-rendering="crispEdges" width="20" x="210" y="80"/>
  <rect fill="#ffef16" height="10" shape-rendering="crispEdges" width="20" x="90" y="90"/>
  <rect fill="#ffc110" height="10" shape-rendering="crispEdges" width="20" x="110" y="90"/>
  <rect fill="#ffef16" height="10" shape-rendering="crispEdges" width="20" x="130" y="90"/>
  <rect fill="#ffc110" height="10" shape-rendering="crispEdges" width="20" x="150" y="90"/>
  <rect fill="#ffef16" height="10" shape-rendering="crispEdges" width="20" x="170" y="90"/>
  <rect fill="#ffc110" height="10" shape-rendering="crispEdges" width="20" x="190" y="90"/>
  <rect fill="#ffef16" height="10" shape-rendering="crispEdges" width="20" x="210" y="90"/>
  <rect fill="#ffef16" height="10" shape-rendering="crispEdges" width="10" x="80" y="100"/>
  <rect fill="#ffc110" height="10" shape-rendering="crispEdges" width="20" x="90" y="100"/>
  <rect fill="#ffef16" height="10" shape-rendering="crispEdges" width="20" x="110" y="100"/>
  <rect fill="#ffc110" height="10" shape-rendering="crispEdges" width="20" x="130" y="100"/>
  <rect fill="#ffef16" height="10" shape-rendering="crispEdges" width="20" x="150" y="100"/>
  <rect fill="#ffc110" height="10" shape-rendering="crispEdges" width="20" x="170" y="100"/>
  <rect fill="#ffef16" height="10" shape-rendering="crispEdges" width="20" x="190" y="100"/>
  <rect fill="#ffc110" height="10" shape-rendering="crispEdges" width="20" x="210" y="100"/>
  <rect fill="#ffef16" height="10" shape-rendering="crispEdges" width="10" x="230" y="100"/>
  <rect fill="#ffef16" height="10" shape-rendering="crispEdges" width="10" x="80" y="110"/>
  <rect fill="#ffc110" height="10" shape-rendering="crispEdges" width="20" x="90" y="110"/>
  <rect fill="#ffef16" height="10" shape-rendering="crispEdges" width="20" x="110" y="110"/>
  <rect fill="#ffc110" height="10" shape-rendering="crispEdges" width="20" x="130" y="110"/>
  <rect fill="#ffef16" height="10" shape-rendering="crispEdges" width="20" x="150" y="110"/>
  <rect fill="#ffc110" height="10" shape-rendering="crispEdges" width="20" x="170" y="110"/>
  <rect fill="#ffef16" height="10" shape-rendering="crispEdges" width="20" x="190" y="110"/>
  <rect fill="#ffc110" height="10" shape-rendering="crispEdges" width="20" x="210" y="110"/>
  <rect fill="#ffef16" height="10" shape-rendering="crispEdges" width="10" x="230" y="110"/>
  <rect fill="#ffc110" height="10" shape-rendering="crispEdges" width="10" x="80" y="120"/>
  <rect fill="#ffef16" height="10" shape-rendering="crispEdges" width="20" x="90" y="120"/>
  <rect fill="#ffc110" height="10" shape-rendering="crispEdges" width="20" x="110" y="120"/>
  <rect fill="#ffef16" height="10" shape-rendering="crispEdges" width="20" x="130" y="120"/>
  <rect fill="#ffc110" height="10" shape-rendering="crispEdges" width="20" x="150" y="120"/>
  <rect fill="#ffef16" height="10" shape-rendering="crispEdges" width="20" x="170" y="120"/>
  <rect fill="#ffc110" height="10" shape-rendering="crispEdges" width="20" x="190" y="120"/>
  <rect fill="#ffef16" height="10" shape-rendering="crispEdges" width="20" x="210" y="120"/>
  <rect fill="#ffc110" height="10" shape-rendering="crispEdges" width="10" x="230" y="120"/>
  <rect fill="#ffc110" height="10" shape-rendering="crispEdges" width="10" x="80" y="130"/>
  <rect fill="#ffef16" height="10" shape-rendering="crispEdges" width="20" x="90" y="130"/>
  <rect fill="#ffc110" height="10" shape-rendering="crispEdges" width="20" x="110" y="130"/>
  <rect fill="#ffef16" height="10" shape-rendering="crispEdges" width="20" x="130" y="130"/>
  <rect fill="#ffc110" height="10" shape-rendering="crispEdges" width="20" x="150" y="130"/>
  <rect fill="#ffef16" height="10" shape-rendering="crispEdges" width="20" x="170" y="130"/>
  <rect fill="#ffc110" height="10" shape-rendering="crispEdges" width="20" x="190" y="130"/>
  <rect fill="#ffef16" height="10" shape-rendering="crispEdges" width="20" x="210" y="130"/>
  <rect fill="#ffc110" height="10" shape-rendering="crispEdges" width="10" x="230" y="130"/>
  <rect fill="#ffc110" height="10" shape-rendering="crispEdges" width="170" x="80" y="140"/>
  <rect fill="#ffc110" height="10" shape-rendering="crispEdges" width="160" x="80" y="150"/>
  <rect fill="#ffc110" height="10" shape-rendering="crispEdges" width="160" x="80" y="160"/>
  <rect fill="#ffc110" height="10" shape-rendering="crispEdges" width="180" x="70" y="170"/>
  <rect fill="#ffc110" height="10" shape-rendering="crispEdges" width="20" x="80" y="180"/>
  <rect fill="#f78a18" height="10" shape-rendering="crispEdges" width="30" x="100" y="180"/>
  <rect fill="#ffc110" height="10" shape-rendering="crispEdges" width="10" x="130" y="180"/>
  <rect fill="#f78a18" height="10" shape-rendering="crispEdges" width="40" x="140" y="180"/>
  <rect fill="#ffc110" height="10" shape-rendering="crispEdges" width="10" x="180" y="180"/>
  <rect fill="#f78a18" height="10" shape-rendering="crispEdges" width="30" x="190" y="180"/>
  <rect fill="#ffc110" height="10" shape-rendering="crispEdges" width="20" x="220" y="180"/>
  <rect fill="#ffc110" height="10" shape-rendering="crispEdges" width="20" x="80" y="190"/>
  <rect fill="#f78a18" height="10" shape-rendering="crispEdges" width="30" x="100" y="190"/>
  <rect fill="#ffc110" height="10" shape-rendering="crispEdges" width="10" x="130" y="190"/>
  <rect fill="#f78a18" height="10" shape-rendering="crispEdges" width="40" x="140" y="190"/>
  <rect fill="#ffc110" height="10" shape-rendering="crispEdges" width="10" x="180" y="190"/>
  <rect fill="#f78a18" height="10" shape-rendering="crispEdges" width="30" x="190" y="190"/>
  <rect fill="#ffc110" height="10" shape-rendering="crispEdges" width="20" x="220" y="190"/>
  <rect fill="#ffc110" height="10" shape-rendering="crispEdges" width="140" x="90" y="200"/>
</svg>