<?xml version="1.0" encoding="utf-8"?>
<svg xmlns="http://www.w3.org/2000/svg" height="320" shape-rendering="crispEdges" viewBox="0 0 320 320" width="320">
  <rect fill="none" height="100%" width="100%"/>
  <rect fill="#ff638d" height="10" shape-rendering="crispEdges" width="40" x="170" y="30"/>
  <rect fill="#fee3f3" height="10" shape-rendering="crispEdges" width="30" x="210" y="30"/>
  <rect fill="#ff638d" height="10" shape-rendering="crispEdges" width="60" x="150" y="40"/>
  <rect fill="#fee3f3" height="10" shape-rendering="crispEdges" width="10" x="210" y="40"/>
  <rect fill="#000000" height="10" shape-rendering="crispEdges" width="10" x="220" y="40"/>
  <rect fill="#fee3f3" height="10" shape-rendering="crispEdges" width="10" x="230" y="40"/>
  <rect fill="#ff638d" height="10" shape-rendering="crispEdges" width="10" x="240" y="40"/>
  <rect fill="#ff638d" height="10" shape-rendering="crispEdges" width="70" x="140" y="50"/>
  <rect fill="#fee3f3" height="10" shape-rendering="crispEdges" width="30" x="210" y="50"/>
  <rect fill="#ff638d" height="10" shape-rendering="crispEdges" width="20" x="240" y="50"/>
  <rect fill="#ff638d" height="10" shape-rendering="crispEdges" width="40" x="130" y="60"/>
  <rect fill="#ff638d" height="10" shape-rendering="crispEdges" width="30" x="220" y="60"/>
  <rect fill="#feb9d5" height="10" shape-rendering="crispEdges" width="20" x="250" y="60"/>
  <rect fill="#ff638d" height="10" shape-rendering="crispEdges" width="40" x="120" y="70"/>
  <rect fill="#feb9d5" height="10" shape-rendering="crispEdges" width="30" x="240" y="70"/>
  <rect fill="#ff638d" height="10" shape-rendering="crispEdges" width="40" x="120" y="80"/>
  <rect fill="#feb9d5" height="10" shape-rendering="crispEdges" width="20" x="240" y="80"/>
  <rect fill="#1f1d29" height="10" shape-rendering="crispEdges" width="10" x="260" y="80"/>
  <rect fill="#ff638d" height="10" shape-rendering="crispEdges" width="50" x="120" y="90"/>
  <rect fill="#1f1d29" height="10" shape-rendering="crispEdges" width="20" x="250" y="90"/>
  <rect fill="#ff638d" height="10" shape-rendering="crispEdges" width="60" x="130" y="100"/>
  <rect fill="#1f1d29" height="10" shape-rendering="crispEdges" width="20" x="250" y="100"/>
  <rect fill="#ff638d" height="10" shape-rendering="crispEdges" width="80" x="140" y="110"/>
  <rect fill="#1f1d29" height="10" shape-rendering="crispEdges" width="10" x="250" y="110"/>
  <rect fill="#ff638d" height="10" shape-rendering="crispEdges" width="90" x="150" y="120"/>
  <rect fill="#ff638d" height="10" shape-rendering="crispEdges" width="90" x="160" y="130"/>
  <rect fill="#ff638d" height="10" shape-rendering="crispEdges" width="80" x="180" y="140"/>
  <rect fill="#ff638d" height="10" shape-rendering="crispEdges" width="60" x="200" y="150"/>
  <rect fill="#ff82ad" height="10" shape-rendering="crispEdges" width="210" x="60" y="160"/>
  <rect fill="#ff82ad" height="10" shape-rendering="crispEdges" width="220" x="50" y="170"/>
  <rect fill="#ff638d" height="10" shape-rendering="crispEdges" width="110" x="50" y="180"/>
  <rect fill="#b9185c" height="10" shape-rendering="crispEdges" width="60" x="160" y="180"/>
  <rect fill="#ff638d" height="10" shape-rendering="crispEdges" width="50" x="220" y="180"/>
  <rect fill="#ff638d" height="10" shape-rendering="crispEdges" width="220" x="50" y="190"/>
  <rect fill="#ff638d" height="10" shape-rendering="crispEdges" width="200" x="60" y="200"/>
</svg>