<?xml version="1.0" encoding="utf-8"?>
<svg xmlns="http://www.w3.org/2000/svg" height="320" shape-rendering="crispEdges" viewBox="0 0 320 320" width="320">
  <rect fill="none" height="100%" width="100%"/>
  <rect fill="#e11833" height="10" shape-rendering="crispEdges" width="80" x="120" y="20"/>
  <rect fill="#e11833" height="10" shape-rendering="crispEdges" width="80" x="90" y="30"/>
  <rect fill="#fff0ee" height="10" shape-rendering="crispEdges" width="20" x="170" y="30"/>
  <rect fill="#e11833" height="10" shape-rendering="crispEdges" width="40" x="190" y="30"/>
  <rect fill="#e11833" height="10" shape-rendering="crispEdges" width="30" x="70" y="40"/>
  <rect fill="#fff0ee" height="10" shape-rendering="crispEdges" width="10" x="100" y="40"/>
  <rect fill="#e11833" height="10" shape-rendering="crispEdges" width="40" x="110" y="40"/>
  <rect fill="#fff0ee" height="10" shape-rendering="crispEdges" width="20" x="150" y="40"/>
  <rect fill="#e11833" height="10" shape-rendering="crispEdges" width="40" x="170" y="40"/>
  <rect fill="#fff0ee" height="10" shape-rendering="crispEdges" width="20" x="210" y="40"/>
  <rect fill="#e11833" height="10" shape-rendering="crispEdges" width="20" x="230" y="40"/>
  <rect fill="#e11833" height="10" shape-rendering="crispEdges" width="80" x="60" y="50"/>
  <rect fill="#fff0ee" height="10" shape-rendering="crispEdges" width="40" x="140" y="50"/>
  <rect fill="#e11833" height="10" shape-rendering="crispEdges" width="50" x="180" y="50"/>
  <rect fill="#fff0ee" height="10" shape-rendering="crispEdges" width="10" x="230" y="50"/>
  <rect fill="#e11833" height="10" shape-rendering="crispEdges" width="20" x="240" y="50"/>
  <rect fill="#e11833" height="10" shape-rendering="crispEdges" width="100" x="50" y="60"/>
  <rect fill="#fff0ee" height="10" shape-rendering="crispEdges" width="20" x="150" y="60"/>
  <rect fill="#e11833" height="10" shape-rendering="crispEdges" width="100" x="170" y="60"/>
  <rect fill="#e11833" height="10" shape-rendering="crispEdges" width="30" x="50" y="70"/>
  <rect fill="#fff0ee" height="10" shape-rendering="crispEdges" width="20" x="80" y="70"/>
  <rect fill="#e11833" height="10" shape-rendering="crispEdges" width="120" x="100" y="70"/>
  <rect fill="#fff0ee" height="10" shape-rendering="crispEdges" width="30" x="220" y="70"/>
  <rect fill="#e11833" height="10" shape-rendering="crispEdges" width="20" x="250" y="70"/>
  <rect fill="#e11833" height="10" shape-rendering="crispEdges" width="30" x="40" y="80"/>
  <rect fill="#fff0ee" height="10" shape-rendering="crispEdges" width="40" x="70" y="80"/>
  <rect fill="#e11833" height="10" shape-rendering="crispEdges" width="60" x="110" y="80"/>
  <rect fill="#fff0ee" height="10" shape-rendering="crispEdges" width="20" x="170" y="80"/>
  <rect fill="#e11833" height="10" shape-rendering="crispEdges" width="20" x="190" y="80"/>
  <rect fill="#fff0ee" height="10" shape-rendering="crispEdges" width="50" x="210" y="80"/>
  <rect fill="#e11833" height="10" shape-rendering="crispEdges" width="20" x="260" y="80"/>
  <rect fill="#e11833" height="10" shape-rendering="crispEdges" width="10" x="40" y="90"/>
  <rect fill="#fff0ee" height="10" shape-rendering="crispEdges" width="10" x="50" y="90"/>
  <rect fill="#e11833" height="10" shape-rendering="crispEdges" width="20" x="60" y="90"/>
  <rect fill="#fff0ee" height="10" shape-rendering="crispEdges" width="20" x="80" y="90"/>
  <rect fill="#e11833" height="10" shape-rendering="crispEdges" width="30" x="100" y="90"/>
  <rect fill="#fff0ee" height="10" shape-rendering="crispEdges" width="10" x="130" y="90"/>
  <rect fill="#e11833" height="10" shape-rendering="crispEdges" width="30" x="140" y="90"/>
  <rect fill="#fff0ee" height="10" shape-rendering="crispEdges" width="20" x="170" y="90"/>
  <rect fill="#e11833" height="10" shape-rendering="crispEdges" width="20" x="190" y="90"/>
  <rect fill="#fff0ee" height="10" shape-rendering="crispEdges" width="50" x="210" y="90"/>
  <rect fill="#e11833" height="10" shape-rendering="crispEdges" width="20" x="260" y="90"/>
  <rect fill="#e11833" height="10" shape-rendering="crispEdges" width="10" x="40" y="100"/>
  <rect fill="#fff0ee" height="10" shape-rendering="crispEdges" width="10" x="50" y="100"/>
  <rect fill="#e11833" height="10" shape-rendering="crispEdges" width="160" x="60" y="100"/>
  <rect fill="#fff0ee" height="10" shape-rendering="crispEdges" width="30" x="220" y="100"/>
  <rect fill="#e11833" height="10" shape-rendering="crispEdges" width="30" x="250" y="100"/>
  <rect fill="#e11833" height="10" shape-rendering="crispEdges" width="240" x="40" y="110"/>
  <rect fill="#e11833" height="10" shape-rendering="crispEdges" width="220" x="50" y="120"/>
  <rect fill="#e11833" height="10" shape-rendering="crispEdges" width="180" x="70" y="130"/>
  <rect fill="#f9e8dd" height="10" shape-rendering="crispEdges" width="140" x="90" y="140"/>
  <rect fill="#f9e8dd" height="10" shape-rendering="crispEdges" width="140" x="90" y="150"/>
  <rect fill="#f9e8dd" height="10" shape-rendering="crispEdges" width="140" x="90" y="160"/>
  <rect fill="#f9e8dd" height="10" shape-rendering="crispEdges" width="140" x="90" y="170"/>
  <rect fill="#f9e8dd" height="10" shape-rendering="crispEdges" width="140" x="90" y="180"/>
  <rect fill="#f9e8dd" height="10" shape-rendering="crispEdges" width="20" x="90" y="190"/>
  <rect fill="#e11833" height="10" shape-rendering="crispEdges" width="40" x="110" y="190"/>
  <rect fill="#f9e8dd" height="10" shape-rendering="crispEdges" width="80" x="150" y="190"/>
  <rect fill="#f9e8dd" height="10" shape-rendering="crispEdges" width="20" x="90" y="200"/>
  <rect fill="#e11833" height="10" shape-rendering="crispEdges" width="10" x="110" y="200"/>
  <rect fill="#000000" height="10" shape-rendering="crispEdges" width="20" x="120" y="200"/>
  <rect fill="#e11833" height="10" shape-rendering="crispEdges" width="10" x="140" y="200"/>
  <rect fill="#f9e8dd" height="10" shape-rendering="crispEdges" width="80" x="150" y="200"/>
  <rect fill="#e11833" height="10" shape-rendering="crispEdges" width="40" x="110" y="210"/>
</svg>