<svg width="320" height="320" viewBox="0 0 320 320" xmlns="http://www.w3.org/2000/svg" shape-rendering="crispEdges"><rect width="100%" height="100%" fill="#d5d7e1" /><rect width="140" height="10" x="90" y="210" fill="#c5b9a1" /><rect width="140" height="10" x="90" y="220" fill="#c5b9a1" /><rect width="140" height="10" x="90" y="230" fill="#c5b9a1" /><rect width="140" height="10" x="90" y="240" fill="#c5b9a1" /><rect width="20" height="10" x="90" y="250" fill="#c5b9a1" /><rect width="110" height="10" x="120" y="250" fill="#c5b9a1" /><rect width="20" height="10" x="90" y="260" fill="#c5b9a1" /><rect width="110" height="10" x="120" y="260" fill="#c5b9a1" /><rect width="20" height="10" x="90" y="270" fill="#c5b9a1" /><rect width="110" height="10" x="120" y="270" fill="#c5b9a1" /><rect width="20" height="10" x="90" y="280" fill="#c5b9a1" /><rect width="110" height="10" x="120" y="280" fill="#c5b9a1" /><rect width="20" height="10" x="90" y="290" fill="#c5b9a1" /><rect width="110" height="10" x="120" y="290" fill="#c5b9a1" /><rect width="20" height="10" x="90" y="300" fill="#c5b9a1" /><rect width="110" height="10" x="120" y="300" fill="#c5b9a1" /><rect width="20" height="10" x="90" y="310" fill="#c5b9a1" /><rect width="110" height="10" x="120" y="310" fill="#c5b9a1" /><rect width="40" height="10" x="140" y="210" fill="#000000" /><rect width="10" height="10" x="140" y="220" fill="#e5e5de" /><rect width="20" height="10" x="150" y="220" fill="#000000" /><rect width="10" height="10" x="170" y="220" fill="#e5e5de" /><rect width="10" height="10" x="140" y="230" fill="#e5e5de" /><rect width="20" height="10" x="150" y="230" fill="#000000" /><rect width="10" height="10" x="170" y="230" fill="#e5e5de" /><rect width="10" height="10" x="140" y="240" fill="#e5e5de" /><rect width="20" height="10" x="150" y="240" fill="#000000" /><rect width="10" height="10" x="170" y="240" fill="#e5e5de" /><rect width="10" height="10" x="140" y="250" fill="#e5e5de" /><rect width="20" height="10" x="150" y="250" fill="#000000" /><rect width="10" height="10" x="170" y="250" fill="#e5e5de" /><rect width="10" height="10" x="140" y="260" fill="#e5e5de" /><rect width="20" height="10" x="150" y="260" fill="#000000" /><rect width="10" height="10" x="170" y="260" fill="#e5e5de" /><rect width="10" height="10" x="140" y="270" fill="#e5e5de" /><rect width="20" height="10" x="150" y="270" fill="#000000" /><rect width="10" height="10" x="170" y="270" fill="#e5e5de" /><rect width="10" height="10" x="140" y="280" fill="#e5e5de" /><rect width="20" height="10" x="150" y="280" fill="#000000" /><rect width="10" height="10" x="170" y="280" fill="#e5e5de" /><rect width="10" height="10" x="140" y="290" fill="#e5e5de" /><rect width="20" height="10" x="150" y="290" fill="#000000" /><rect width="10" height="10" x="170" y="290" fill="#e5e5de" /><rect width="10" height="10" x="140" y="300" fill="#e5e5de" /><rect width="20" height="10" x="150" y="300" fill="#000000" /><rect width="10" height="10" x="170" y="300" fill="#e5e5de" /><rect width="10" height="10" x="140" y="310" fill="#e5e5de" /><rect width="20" height="10" x="150" y="310" fill="#000000" /><rect width="10" height="10" x="170" y="310" fill="#e5e5de" /><rect width="20" height="10" x="150" y="30" fill="#f3322c" /><rect width="20" height="10" x="150" y="40" fill="#f3322c" /><rect width="40" height="10" x="140" y="50" fill="#f3322c" /><rect width="40" height="10" x="140" y="60" fill="#f3322c" /><rect width="40" height="10" x="140" y="70" fill="#f3322c" /><rect width="60" height="10" x="130" y="80" fill="#f3322c" /><rect width="60" height="10" x="130" y="90" fill="#f9e8dd" /><rect width="60" height="10" x="130" y="100" fill="#f9e8dd" /><rect width="80" height="10" x="120" y="110" fill="#f9e8dd" /><rect width="80" height="10" x="120" y="120" fill="#f3322c" /><rect width="80" height="10" x="120" y="130" fill="#f3322c" /><rect width="100" height="10" x="110" y="140" fill="#f3322c" /><rect width="100" height="10" x="110" y="150" fill="#f9e8dd" /><rect width="100" height="10" x="110" y="160" fill="#f9e8dd" /><rect width="120" height="10" x="100" y="170" fill="#f9e8dd" /><rect width="120" height="10" x="100" y="180" fill="#f3322c" /><rect width="40" height="10" x="70" y="190" fill="#f3322c" /><rect width="120" height="10" x="110" y="190" fill="#bd2d24" /><rect width="20" height="10" x="230" y="190" fill="#f3322c" /><rect width="180" height="10" x="70" y="200" fill="#f3322c" /><rect width="60" height="10" x="100" y="110" fill="#000000" /><rect width="60" height="10" x="170" y="110" fill="#000000" /><rect width="10" height="10" x="100" y="120" fill="#000000" /><rect width="20" height="10" x="110" y="120" fill="#ffffff" /><rect width="30" height="10" x="130" y="120" fill="#000000" /><rect width="10" height="10" x="170" y="120" fill="#000000" /><rect width="20" height="10" x="180" y="120" fill="#ffffff" /><rect width="30" height="10" x="200" y="120" fill="#000000" /><rect width="40" height="10" x="70" y="130" fill="#000000" /><rect width="20" height="10" x="110" y="130" fill="#ffffff" /><rect width="50" height="10" x="130" y="130" fill="#000000" /><rect width="20" height="10" x="180" y="130" fill="#ffffff" /><rect width="30" height="10" x="200" y="130" fill="#000000" /><rect width="10" height="10" x="70" y="140" fill="#000000" /><rect width="10" height="10" x="100" y="140" fill="#000000" /><rect width="20" height="10" x="110" y="140" fill="#ffffff" /><rect width="30" height="10" x="130" y="140" fill="#000000" /><rect width="10" height="10" x="170" y="140" fill="#000000" /><rect width="20" height="10" x="180" y="140" fill="#ffffff" /><rect width="30" height="10" x="200" y="140" fill="#000000" /><rect width="10" height="10" x="70" y="150" fill="#000000" /><rect width="10" height="10" x="100" y="150" fill="#000000" /><rect width="20" height="10" x="110" y="150" fill="#ffffff" /><rect width="30" height="10" x="130" y="150" fill="#000000" /><rect width="10" height="10" x="170" y="150" fill="#000000" /><rect width="20" height="10" x="180" y="150" fill="#ffffff" /><rect width="30" height="10" x="200" y="150" fill="#000000" /><rect width="60" height="10" x="100" y="160" fill="#000000" /><rect width="60" height="10" x="170" y="160" fill="#000000" /></svg>