<?xml version="1.0" encoding="utf-8"?>
<!-- Generator: Adobe Illustrator 27.6.1, SVG Export Plug-In . SVG Version: 6.00 Build 0)  -->
<svg version="1.1" id="Layer_1" shape-rendering="crispEdges"
	 xmlns="http://www.w3.org/2000/svg" xmlns:xlink="http://www.w3.org/1999/xlink" x="0px" y="0px" viewBox="0 0 320 320"
	 style="enable-background:new 0 0 320 320;" xml:space="preserve">
<style type="text/css">
	.st0{fill:none;}
	.st1{fill:#027C92;}
	.st2{fill:#FFFFFF;}
</style>
<rect class="st0" width="320" height="320"/>
<rect x="100" y="110" class="st1" width="60" height="10"/>
<rect x="170" y="110" class="st1" width="60" height="10"/>
<rect x="100" y="120" class="st1" width="10" height="10"/>
<rect x="110" y="120" class="st2" width="20" height="10"/>
<rect x="130" y="120" width="20" height="10"/>
<rect x="150" y="120" class="st1" width="10" height="10"/>
<rect x="170" y="120" class="st1" width="10" height="10"/>
<rect x="180" y="120" class="st2" width="20" height="10"/>
<rect x="200" y="120" width="20" height="10"/>
<rect x="220" y="120" class="st1" width="10" height="10"/>
<rect x="70" y="130" class="st1" width="40" height="10"/>
<rect x="110" y="130" class="st2" width="20" height="10"/>
<rect x="130" y="130" width="20" height="10"/>
<rect x="150" y="130" class="st1" width="30" height="10"/>
<rect x="180" y="130" class="st2" width="20" height="10"/>
<rect x="200" y="130" width="20" height="10"/>
<rect x="220" y="130" class="st1" width="10" height="10"/>
<rect x="70" y="140" class="st1" width="10" height="10"/>
<rect x="100" y="140" class="st1" width="10" height="10"/>
<rect x="110" y="140" class="st2" width="20" height="10"/>
<rect x="130" y="140" width="20" height="10"/>
<rect x="150" y="140" class="st1" width="10" height="10"/>
<rect x="170" y="140" class="st1" width="10" height="10"/>
<rect x="180" y="140" class="st2" width="20" height="10"/>
<rect x="200" y="140" width="20" height="10"/>
<rect x="220" y="140" class="st1" width="10" height="10"/>
<rect x="70" y="150" class="st1" width="10" height="10"/>
<rect x="100" y="150" class="st1" width="10" height="10"/>
<rect x="110" y="150" class="st2" width="20" height="10"/>
<rect x="130" y="150" width="20" height="10"/>
<rect x="150" y="150" class="st1" width="10" height="10"/>
<rect x="170" y="150" class="st1" width="10" height="10"/>
<rect x="180" y="150" class="st2" width="20" height="10"/>
<rect x="200" y="150" width="20" height="10"/>
<rect x="220" y="150" class="st1" width="10" height="10"/>
<rect x="100" y="160" class="st1" width="60" height="10"/>
<rect x="170" y="160" class="st1" width="60" height="10"/>
</svg>
